HIERARCHY
ROOT Hips
{
  OFFSET -33.9132 29.2015 117.021
  CHANNELS 6 Xposition Yposition Zposition Zrotation Xrotation Yrotation
  JOINT LeftUpLeg
  {
    OFFSET 8.64259 1.95398 -2.38835
    CHANNELS 3 Zrotation Xrotation Yrotation
    JOINT LeftLeg
    {
      OFFSET 43.7702 0 0
      CHANNELS 3 Zrotation Xrotation Yrotation
      JOINT LeftFoot
      {
        OFFSET 40.6238 0 0
        CHANNELS 3 Zrotation Xrotation Yrotation
        JOINT LeftToeBase
        {
          OFFSET 12.7242 0 0
          CHANNELS 3 Zrotation Xrotation Yrotation
          End Site
          {
            OFFSET 0 0 0
          }
        }
      }
    }
  }
  JOINT RightUpLeg
  {
    OFFSET -8.2249 1.95398 -2.59336
    CHANNELS 3 Zrotation Xrotation Yrotation
    JOINT RightLeg
    {
      OFFSET 43.5653 0 0
      CHANNELS 3 Zrotation Xrotation Yrotation
      JOINT RightFoot
      {
        OFFSET 40.6238 0 0
        CHANNELS 3 Zrotation Xrotation Yrotation
        JOINT RightToeBase
        {
          OFFSET 12.7242 0 0
          CHANNELS 3 Zrotation Xrotation Yrotation
          End Site
          {
            OFFSET 0 0 0
          }
        }
      }
    }
  }
  JOINT Spine
  {
    OFFSET 0.165834 0.87714 6.61349
    CHANNELS 3 Zrotation Xrotation Yrotation
    JOINT Spine1
    {
      OFFSET 7.38963 1.71661e-005 0
      CHANNELS 3 Zrotation Xrotation Yrotation
      JOINT Spine2
      {
        OFFSET 11.9445 1.14441e-005 0
        CHANNELS 3 Zrotation Xrotation Yrotation
        JOINT Spine3
        {
          OFFSET 14.7254 4.19617e-005 0
          CHANNELS 3 Zrotation Xrotation Yrotation
          JOINT Spine4
          {
            OFFSET 10.9679 0 0
            CHANNELS 3 Zrotation Xrotation Yrotation
            JOINT RightShoulder
            {
              OFFSET 2.46616 -1.6653 3.69651
              CHANNELS 3 Zrotation Xrotation Yrotation
              JOINT RightArm
              {
                OFFSET 13.0012 0 0
                CHANNELS 3 Zrotation Xrotation Yrotation
                JOINT RightForeArm
                {
                  OFFSET 28.7848 1.62311e-005 0
                  CHANNELS 3 Zrotation Xrotation Yrotation
                  JOINT RightHand
                  {
                    OFFSET 26.5688 1.62095e-005 0
                    CHANNELS 3 Zrotation Xrotation Yrotation
                    End Site
                    {
                      OFFSET 0 0 0
                    }
                  }
                }
              }
            }
            JOINT LeftShoulder
            {
              OFFSET 2.38034 -1.29275 -3.7523
              CHANNELS 3 Zrotation Xrotation Yrotation
              JOINT LeftArm
              {
                OFFSET 16.3182 6.07031e-005 0
                CHANNELS 3 Zrotation Xrotation Yrotation
                JOINT LeftForeArm
                {
                  OFFSET 27.0901 0 0
                  CHANNELS 3 Zrotation Xrotation Yrotation
                  JOINT LeftHand
                  {
                    OFFSET 24.5451 1.51738e-005 0
                    CHANNELS 3 Zrotation Xrotation Yrotation
                    End Site
                    {
                      OFFSET 0 0 0
                    }
                  }
                }
              }
            }
            JOINT Neck
            {
              OFFSET 5.0226 -0.0266342 0
              CHANNELS 3 Zrotation Xrotation Yrotation
              JOINT Head
              {
                OFFSET 6.69364 2.86102e-005 0
                CHANNELS 3 Zrotation Xrotation Yrotation
                End Site
                {
                  OFFSET 0 0 0
                }
              }
            }
          }
        }
      }
    }
  }
}
MOTION
Frames:	10
Frame Time:	0.0416667
-149.442 85.1701 -123.493 70.567 -33.9694 76.2405 -168.993 0.721846 89.7822 -30.5373 13.6481 -3.83468 99.5451 27.6084 -4.46227 39.9598 3.95967 3.52993 -164.432 64.5245 84.9855 -91.4519 5.7893 -5.86442 83.4733 -15.9593 -6.24805 22.6438 -0.362453 10.6058 -3.20969 8.44183 -89.6322 10.0344 -6.22909 1.24667 -1.62242 -6.16817 1.52061 -24.2779 -6.31467 -0.690732 -4.26528 -6.31465 -0.690732 99.6309 -24.4236 -87.7982 17.6018 20.3125 64.446 -121.448 -33.4663 -108.673 -36.6151 8.48129 -30.9377 -84.1522 -11.678 79.74 -14.5081 -23.3674 -75.4508 22.9465 43.3566 -37.5349 63.6502 -24.7076 -36.11 34.0557 6.50845 -10.9379 -6.08866 11.0134 -2.67068 
-140.233 87.5234 -116.673 68.1798 -38.2348 78.7875 -170.602 -9.11326 90.5656 -17.3557 12.9355 -1.65408 76.3226 14.1236 0.988501 54.6759 10.5119 0.938827 -167.463 67.5742 91.1061 -75.3081 0.341849 -5.366 82.1721 -14.6315 -5.16405 20.765 1.01681 8.336 -3.33389 8.60888 -90.4466 9.65934 -6.84817 -0.35355 -1.99343 -6.85704 -0.0503604 -24.6608 -6.42399 -2.40387 -4.64819 -6.42398 -2.40387 99.2559 -19.975 -89.1898 15.1018 21.0703 74.3071 -108.016 -29.887 -99.7941 -35.2692 9.24353 -34.1709 -81.815 -2.93493 83.4232 -18.2291 -25.4265 -73.6492 22.8154 43.1827 -36.0367 65.6126 -27.6018 -38.8896 42.2387 10.0281 -8.9797 -10.8099 14.091 -1.79717 
-130.062 90.0198 -109.256 67.104 -43.6831 81.5521 -173.608 -13.3257 90.8956 -14.5827 11.5736 1.19605 53.9506 -2.40723 2.38468 49.0888 11.1647 -14.059 -176.025 63.9763 101.416 -57.5635 -9.17559 -2.42174 77.4379 -11.4415 -2.86395 23.984 0.155248 7.0539 -2.98876 8.85772 -91.2135 9.10616 -6.5036 -1.94458 -2.5495 -6.58288 -1.65536 -25.1766 -5.61807 -3.81393 -5.16401 -5.61809 -3.81394 94.3979 -16.6406 -102.21 28.8042 16.8927 79.8309 -78.7617 -35.1239 -83.9536 -43.6144 9.78811 -29.6867 -81.5578 -1.65251 83.8816 -17.1651 -22.2201 -70.5828 23.3652 44.1754 -36.6315 66.9812 -29.134 -39.8828 45.5739 13.2294 -6.05863 -12.9638 15.6708 -0.628648 
-120.745 90.9258 -101.695 66.4231 -47.4792 81.4448 -174.222 -13.7934 89.107 -22.2628 18.3028 0.933957 52.8383 -4.27518 2.73281 17.7772 -6.09856 2.08707 177.552 59.014 107.074 -47.1181 -15.497 1.48631 76.6007 -11.4052 -2.80739 27.8251 -1.35839 7.13932 -2.61345 8.82617 -91.6221 9.14524 -5.93788 -2.79118 -2.51457 -6.05489 -2.52646 -25.1036 -4.82491 -4.44843 -5.09095 -4.82491 -4.44843 90.938 -12.5248 -113.407 48.6786 12.0381 78.2264 -50.6849 -29.3102 -68.3312 -47.692 10.0247 -27.9118 -82.5347 -6.94235 82.5352 -15.8037 -12.5367 -66.884 30.4646 46.4547 -44.2182 67.6618 -25.6913 -34.4036 41.8488 16.1477 -1.5503 -10.6434 16.0048 -0.953566 
-112.501 90.44 -94.6069 68.1841 -48.3601 80.1801 -172.106 -10.1338 86.7678 -38.7771 21.0499 -1.75403 54.3828 -3.27905 1.93018 30.0358 2.45658 -4.87533 173.65 53.36 106.892 -46.3393 -9.32221 3.8115 76.3198 -10.8758 -2.34295 28.6593 -1.62344 6.86363 -2.5606 8.88007 -91.6067 9.04034 -5.82477 -2.77514 -2.61994 -5.9412 -2.51546 -25.2061 -4.72184 -4.39894 -5.19345 -4.72184 -4.39897 89.2722 -21.8914 -111.969 44.5446 10.2548 70.9407 -44.239 -21.2949 -69.9311 -47.7959 10.5265 -28.9709 -85.0415 -17.8632 79.8439 -13.7775 -2.0851 -60.7131 36.8036 50.5765 -49.8532 74.0939 -21.154 -24.4822 42.6821 17.6001 -0.207095 -11.3527 16.6359 -0.0359995 
-104.278 90.5637 -87.1993 71.6838 -49.2507 81.6986 -167.828 -0.991245 91.1001 -60.4633 15.166 -2.27022 50.0128 -6.28034 1.40983 27.0304 3.32859 -9.70814 171.328 45.8696 104.925 -49.7657 -7.84145 5.37239 74.5933 -8.99699 -1.84878 19.0435 2.61882 5.65971 -2.35394 9.01555 -91.5949 8.77125 -5.40447 -2.79927 -2.89096 -5.5224 -2.55824 -25.4646 -4.31385 -4.29498 -5.45197 -4.31385 -4.29499 89.9795 -28.941 -107.227 39.0272 8.82116 55.335 -44.6203 -19.1635 -72.1963 -49.5309 10.6109 -28.2371 -88.308 -30.5672 76.6735 -11.4973 9.19099 -48.0021 47.1769 52.548 -58.7149 73.8113 -19.45 -22.0195 40.9346 17.8299 1.08992 -8.45639 16.2358 0.225315 
-96.4894 90.0159 -79.7666 72.0009 -52.0386 83.8457 -163.585 10.1779 93.8786 -80.195 6.7862 -0.383444 53.8563 -3.69855 4.07695 25.5718 2.05283 -7.97246 170.447 38.9827 106.379 -53.9766 -9.30688 5.40144 80.4509 -13.3854 -1.25331 23.2349 0.624179 6.46103 -1.75819 8.94337 -91.9819 8.90503 -4.38975 -3.62548 -2.76301 -4.54495 -3.42874 -25.2913 -3.09853 -4.77594 -5.27867 -3.09854 -4.77593 90.9249 -29.7448 -105.013 37.6168 5.55536 40.0589 -38.4996 -13.5277 -74.4268 -49.26 11.0285 -29.263 -90.4785 -41.7315 76.0063 -12.1854 21.2016 -24.5218 44.4077 46.2475 -56.5131 68.9284 -19.7252 -24.9628 35.7121 18.3519 6.1287 -3.85418 14.7097 -1.1032 
-89.3118 89.2231 -73.1944 69.3269 -59.1666 83.27 -161.62 26.377 95.459 -95.7666 7.4155 1.76667 59.6446 0.446232 8.02437 21.757 1.76153 -10.4116 173.584 32.3079 107.463 -55.1859 -11.2187 3.69921 86.0834 -17.8317 -0.626738 24.8789 -0.520393 8.20021 -0.566908 8.83263 -92.0359 9.15906 -2.04173 -3.88797 -2.51586 -2.21073 -3.79451 -25.0071 -0.78012 -4.32102 -4.9944 -0.780106 -4.32101 90.631 -29.3955 -105.734 34.5658 2.68355 25.7042 -36.8533 -7.92973 -82.0089 -55.3824 10.888 -25.9733 -88.8743 -42.9294 78.9294 -22.6003 29.481 8.47792 50.1058 37.7273 -59.5528 66.2676 -19.016 -25.4225 32.6249 17.2291 7.75045 -2.15662 13.1752 -0.0305882 
-82.0512 88.4135 -66.1615 66.7125 -64.7271 79.2014 -164.801 40.1835 96.238 -103.389 12.4949 2.98526 66.5124 5.86175 11.6013 18.7098 -0.265491 -8.52489 177.567 24.5364 104.303 -54.7309 -11.5506 0.642963 91.0983 -21.5637 0.544056 30.6309 -2.26755 6.41443 0.695958 8.57405 -91.625 9.72547 0.652214 -3.27685 -1.94952 0.507439 -3.30236 -24.4583 1.6065 -2.92987 -4.44563 1.6065 -2.92987 90.4015 -26.2824 -107.414 29.6156 5.1617 14.7218 -28.7492 -0.00561809 -89.9887 -58.6953 12.8663 -28.0627 -85.7861 -37.4247 82.9873 -34.659 34.2211 39.6138 49.0861 26.226 -59.4653 70.1665 -20.5307 -25.8619 28.2608 14.3819 8.54819 -0.111576 10.4935 -0.528457 
-73.9431 88.6663 -58.4627 67.5091 -65.7353 75.4482 -171.405 49.5462 96.1337 -100.399 7.22727 3.47362 72.5327 9.42389 9.83379 20.1068 0.267851 -8.53877 178.226 14.1439 96.3463 -49.9032 -13.3589 -2.13309 92.1235 -23.4788 -0.652824 34.1399 -3.65344 6.66974 1.91005 8.27916 -91.126 10.35 3.2899 -2.52421 -1.31956 3.17565 -2.66657 -23.8799 3.89622 -1.41801 -3.86729 3.89621 -1.41802 92.401 -20.2983 -105.469 26.0508 16.0039 11.8497 -29.9247 2.81613 -99.7329 -58.3694 13.9142 -30.072 -84.0595 -29.4309 84.6957 -41.2537 39.9221 59.0942 43.2374 14.7587 -56.68 65.6356 -23.7371 -33.7102 22.5891 9.25972 10.2035 2.39145 5.4259 -1.81512 
